<?xml version="1.0" encoding="UTF-8" standalone="no"?>
<svg
   xmlns:svg="http://www.w3.org/2000/svg"
   xmlns="http://www.w3.org/2000/svg"
   version="1.0"
   width="706"
   height="240"
   id="svg2"
   xml:space="preserve"><defs
     id="defs5" /><g
     transform="matrix(1.25,0,0,-1.25,34.39,309.03603)"
     id="g11"><path
       d="M -15.177929,221.23366 L -27.4965,221.23366 L -27.4965,218.82644 L -22.823303,218.82644 L -22.823303,205.96133 L -19.851126,205.96133 L -19.851126,218.82644 L -15.177929,218.82644 L -15.177929,221.23366 z M -7.7720491,221.23366 L -12.064512,221.23366 L -12.064512,205.96133 L -9.2888421,205.96133 L -9.2888421,217.89917 L -9.2090109,217.89917 L -4.6524908,205.96133 L -2.5768792,205.96133 L 1.9796409,217.89917 L 2.0594721,217.89917 L 2.0594721,205.96133 L 4.835142,205.96133 L 4.835142,221.23366 L 0.56724246,221.23366 L -3.5839807,210.41346 L -7.7720491,221.23366 z"
       id="path795"
       style="fill:#009ee0;fill-opacity:1;fill-rule:nonzero;stroke:none" /><path
       d="M 156.03546,234.1786 C 110.33516,260.51062 51.720629,244.84527 25.278074,199.18182 C 25.278074,199.1634 25.25351,199.12655 25.228947,199.10813 C 25.210524,199.06514 25.210524,199.0283 25.185961,199.00988 C -1.1337765,153.30958 14.605255,94.68276 60.280991,68.313895 C 106.00585,41.902045 164.6818,57.641076 191.08137,103.36594 C 217.46865,149.07238 201.74804,207.75446 156.03546,234.1786 M 195.8651,130.50855 C 194.23777,143.35524 187.94953,156.99409 177.79868,169.87762 C 180.13221,186.10792 178.77508,201.16532 173.72729,213.10316 C 194.45884,191.12501 202.78585,159.911 195.8651,130.50855 M 62.33818,177.70722 C 69.621243,190.3267 78.537776,201.22673 88.080677,209.88534 C 102.43801,207.75446 117.93755,202.41805 132.75545,193.86383 C 147.56721,185.29733 159.94105,174.5324 168.99882,163.15952 C 166.24772,150.58303 161.27976,137.37404 153.9967,124.75456 C 146.67679,112.12281 137.7664,101.22892 128.21736,92.564162 C 113.88458,94.719605 98.35434,100.05601 83.530297,108.6041 C 68.718537,117.15218 56.350839,127.92325 47.31763,139.247 C 50.038032,151.87261 55.00599,165.05091 62.33818,177.70722 M 41.612769,147.30381 C 30.896963,164.0131 27.642306,181.09084 34.833256,193.54451 C 42.054911,206.0473 58.451014,211.73988 78.286001,210.81261 C 70.032681,202.52859 62.411871,192.65408 55.920979,181.4163 C 49.417805,170.12326 44.701623,158.56615 41.612769,147.30381 M 174.69754,155.14569 C 185.40107,138.45483 188.64958,121.37095 181.45249,108.905 C 174.24926,96.420624 157.84088,90.709621 138.01203,91.630751 C 146.26535,99.92706 153.8923,109.79542 160.40162,121.05162 C 166.87409,132.30783 171.63325,143.87107 174.69754,155.14569 M 152.32024,227.74911 C 166.65916,219.47737 172.91055,200.29332 171.11128,177.62125 C 162.15176,187.16415 151.13505,196.06226 138.30679,203.47428 C 125.46011,210.87402 112.26339,215.95866 99.521104,218.94926 C 118.25688,231.85121 138.00589,236.01471 152.32024,227.74911 M 128.94812,238.94391 C 116.07687,237.335 102.36432,231.01605 89.462371,220.85907 C 73.268916,223.2233 58.27907,221.8416 46.347374,216.83066 C 68.362366,237.56221 99.56409,245.92607 128.94812,238.94391 M 20.432933,171.92253 C 22.060262,159.09427 28.373069,145.44313 38.499351,132.57188 C 36.153542,116.36 37.559799,101.28419 42.558461,89.34635 C 21.863754,111.3245 13.518322,142.52008 20.432933,171.92253 M 63.977791,74.718815 C 49.657299,82.990557 43.39976,102.17461 45.174469,124.8344 C 54.140128,115.28535 65.144554,106.41181 77.991239,98.969082 C 90.80722,91.55706 104.0285,86.472426 116.80149,83.506389 C 98.028874,70.598296 78.286001,66.434791 63.977791,74.718815 M 87.362196,63.487177 C 100.2273,65.096083 113.93371,71.451876 126.82952,81.59044 C 143.0414,79.244631 158.01282,80.626325 169.94452,85.618846 C 147.92952,64.924139 116.75236,56.541861 87.362196,63.487177"
       id="path797"
       style="fill:#00527f;fill-opacity:1;fill-rule:nonzero;stroke:none" /><path
       d="M 138.37434,170.89701 L 89.984344,166.03958 L 100.07992,155.67381 L 77.948253,142.96222 L 83.800495,132.78067 L 105.91988,145.49226 L 109.78249,131.5525 L 138.37434,170.89701 z"
       id="path799"
       style="fill:#009ee0;fill-opacity:1;fill-rule:nonzero;stroke:none" /><path
       d="M 243.30326,191.78822 L 300.02641,191.78822 L 300.02641,182.58307 L 254.234,182.58307 L 254.234,156.46598 L 296.91913,156.46598 L 296.91913,147.26083 L 254.234,147.26083 L 254.234,118.84705 L 300.3703,118.84705 L 300.3703,109.6419 L 243.30326,109.6419 L 243.30326,191.78822 z"
       id="path801"
       style="fill:#009ee0;fill-opacity:1;fill-rule:nonzero;stroke:none" /><path
       d="M 373.0904,167.05283 C 370.78757,178.67134 361.46574,184.542 350.07444,184.542 C 330.51579,184.542 322.23177,168.43452 322.23177,151.28923 C 322.23177,132.53504 330.51579,116.88812 350.19112,116.88812 C 364.57302,116.88812 372.85704,127.0144 373.89485,140.58571 L 384.82558,140.58571 C 382.74997,120.10593 369.97698,107.68297 349.26999,107.68297 C 323.73014,107.68297 311.30104,126.55384 311.30104,150.48478 C 311.30104,174.29904 324.87848,193.74102 350.19112,193.74102 C 367.33641,193.74102 381.48495,184.542 384.01499,167.05283 L 373.0904,167.05283 z"
       id="path803"
       style="fill:#009ee0;fill-opacity:1;fill-rule:nonzero;stroke:none" /><path
       d="M 400.12247,191.78822 L 428.31517,191.78822 C 453.62781,191.78822 467.77636,179.1319 467.77636,152.67093 C 467.77636,125.17214 455.69728,109.6419 428.31517,109.6419 L 400.12247,109.6419 L 400.12247,191.78822 z M 411.05321,118.84705 L 429.2363,118.84705 C 436.70973,118.84705 456.84562,120.91038 456.84562,151.17256 C 456.84562,170.7312 449.5994,182.58307 429.46351,182.58307 L 411.05321,182.58307 L 411.05321,118.84705 z"
       id="path805"
       style="fill:#009ee0;fill-opacity:1;fill-rule:nonzero;stroke:none" /><path
       d="M 482.85217,191.78822 L 493.78291,191.78822 L 493.78291,118.84705 L 537.2725,118.84705 L 537.2725,109.6419 L 482.85217,109.6419 L 482.85217,191.78822 z"
       id="path807"
       style="fill:#009ee0;fill-opacity:1;fill-rule:nonzero;stroke:none" /></g></svg>